<?xml version="1.0" encoding="UTF-8" standalone="no"?>
<svg
   xmlns:dc="http://purl.org/dc/elements/1.1/"
   xmlns:cc="http://creativecommons.org/ns#"
   xmlns:rdf="http://www.w3.org/1999/02/22-rdf-syntax-ns#"
   xmlns:svg="http://www.w3.org/2000/svg"
   xmlns="http://www.w3.org/2000/svg"
   xmlns:sodipodi="http://sodipodi.sourceforge.net/DTD/sodipodi-0.dtd"
   xmlns:inkscape="http://www.inkscape.org/namespaces/inkscape"
   sodipodi:docname="bdeshiinteractive LOGO.svg"
   inkscape:version="1.0 (4035a4fb49, 2020-05-01)"
   id="svg8"
   version="1.1"
   viewBox="0 0 98.955879 15.448632"
   height="15.448632mm"
   width="98.955879mm">
  <defs
     id="defs2" />
  <sodipodi:namedview
     inkscape:window-maximized="1"
     inkscape:window-y="-8"
     inkscape:window-x="-8"
     inkscape:window-height="1017"
     inkscape:window-width="1920"
     showgrid="false"
     inkscape:document-rotation="0"
     inkscape:current-layer="layer3"
     inkscape:document-units="mm"
     inkscape:cy="7.5510104"
     inkscape:cx="177.72674"
     inkscape:zoom="1.979899"
     inkscape:pageshadow="2"
     inkscape:pageopacity="0.0"
     borderopacity="1.0"
     bordercolor="#666666"
     pagecolor="#ffffff"
     id="base" />
  <metadata
     id="metadata5">
    <rdf:RDF>
      <cc:Work
         rdf:about="">
        <dc:format>image/svg+xml</dc:format>
        <dc:type
           rdf:resource="http://purl.org/dc/dcmitype/StillImage" />
        <dc:title />
      </cc:Work>
    </rdf:RDF>
  </metadata>
  <g
     id="layer1"
     inkscape:groupmode="layer"
     inkscape:label="Layer 1"
     transform="translate(-28.402988,-75.277078)" />
  <g
     inkscape:label="Layer 2"
     id="layer3"
     inkscape:groupmode="layer"
     transform="translate(-28.402988,-75.277078)">
    <g
       transform="translate(0,-17.372519)"
       style="font-style:normal;font-variant:normal;font-weight:normal;font-stretch:normal;font-size:10.5833px;line-height:1.25;font-family:'Bree Serif';-inkscape-font-specification:'Bree Serif';letter-spacing:0px;word-spacing:0px;fill:#38423b;fill-opacity:1;stroke:none;stroke-width:0.264583"
       id="text874"
       aria-label="B-DESHI">
      <path
         id="path880"
         style="font-style:normal;font-variant:normal;font-weight:normal;font-stretch:normal;font-family:'Bree Serif';-inkscape-font-specification:'Bree Serif';fill:#52ac7b;fill-opacity:1;stroke-width:0.264583"
         d="m 28.455904,92.776597 h 2.984491 q 2.285993,0 2.285993,1.767411 0,0.973664 -0.973664,1.481662 0.624415,0.158749 0.973664,0.582081 0.359832,0.423332 0.359832,1.100664 0,1.02658 -0.698498,1.566328 -0.687914,0.539748 -2.010827,0.539748 h -2.973907 v -0.857247 l 0.349249,-0.03175 q 0.306915,-0.03175 0.306915,-0.296332 v -4.921235 l -0.603248,-0.03175 z m 1.894411,3.831154 v 2.21191 h 0.99483 q 1.375829,0 1.375829,-1.12183 0,-0.529165 -0.349249,-0.80433 -0.338665,-0.28575 -0.973663,-0.28575 z m 0,-2.85749 v 1.915577 h 0.783164 q 0.656165,0 0.96308,-0.264583 0.317499,-0.275165 0.317499,-0.761997 0,-0.486832 -0.317499,-0.687915 -0.306915,-0.201082 -0.888997,-0.201082 z" />
      <path
         id="path882"
         style="font-style:normal;font-variant:normal;font-weight:normal;font-stretch:normal;font-family:'Bree Serif';-inkscape-font-specification:'Bree Serif';fill:#52ac7b;fill-opacity:1;stroke-width:0.264583"
         d="m 34.727171,97.253333 v -0.973664 h 2.772824 v 0.973664 z" />
      <path
         id="path884"
         style="font-style:normal;font-variant:normal;font-weight:normal;font-stretch:normal;font-family:'Bree Serif';-inkscape-font-specification:'Bree Serif';fill:#eb5e55;fill-opacity:1;stroke-width:0.264583"
         d="m 38.180137,99.814491 v -0.857247 l 0.349249,-0.03175 q 0.306916,-0.03175 0.306916,-0.296332 v -4.921235 l -0.603248,-0.03175 v -0.89958 h 2.899824 q 1.555745,0 2.423575,0.825497 0.878414,0.825498 0.878414,2.444743 0,1.005413 -0.264582,1.756827 -0.264583,0.740831 -0.719665,1.164163 -0.910163,0.846664 -2.264826,0.846664 z m 1.947327,-6.011314 v 4.995318 h 1.079497 q 0.910164,0 1.418162,-0.656165 0.507998,-0.656165 0.507998,-1.904994 0,-2.434159 -2.063743,-2.434159 z" />
      <path
         id="path886"
         style="font-style:normal;font-variant:normal;font-weight:normal;font-stretch:normal;font-family:'Bree Serif';-inkscape-font-specification:'Bree Serif';fill:#eb5e55;fill-opacity:1;stroke-width:0.264583"
         d="M 50.235178,99.814491 H 45.20811 v -0.857247 l 0.349249,-0.03175 q 0.306916,-0.03175 0.306916,-0.296332 v -4.921235 l -0.603248,-0.03175 v -0.89958 h 4.847151 v 1.756828 l -1.079497,0.07408 v -0.423332 q 0,-0.179916 -0.05292,-0.253999 -0.05292,-0.07408 -0.253999,-0.07408 h -1.566329 v 1.809744 h 2.444743 v 1.079496 h -2.444743 v 1.979077 h 1.703912 q 0.190499,0 0.243415,-0.07408 0.05292,-0.08467 0.05292,-0.264582 v -0.529165 l 1.079497,0.07408 z" />
      <path
         id="path888"
         style="font-style:normal;font-variant:normal;font-weight:normal;font-stretch:normal;font-family:'Bree Serif';-inkscape-font-specification:'Bree Serif';fill:#eb5e55;fill-opacity:1;stroke-width:0.264583"
         d="m 53.207266,98.861994 q 1.269996,0 1.269996,-1.015996 0,-0.529165 -0.560915,-0.783165 -0.296333,-0.148166 -0.772581,-0.275165 -0.465665,-0.127 -0.783164,-0.254 -0.306916,-0.137583 -0.624415,-0.370415 -0.624415,-0.465665 -0.624415,-1.428746 0,-0.973663 0.666748,-1.523995 0.677332,-0.560915 1.756828,-0.560915 1.09008,0 2.02141,0.433916 v 1.587495 l -1.079496,0.07408 v -0.613832 q 0,-0.158749 -0.04233,-0.232832 -0.116417,-0.201083 -0.751415,-0.201083 -0.624414,0 -0.93133,0.222249 -0.296332,0.22225 -0.296332,0.687915 0,0.338665 0.253999,0.592665 0.169333,0.169332 0.497415,0.285749 0.338665,0.105833 0.709081,0.222249 0.380999,0.116416 0.666748,0.253999 0.296332,0.137583 0.613831,0.380999 0.645581,0.476248 0.645581,1.471079 0,0.99483 -0.719664,1.566328 -0.709081,0.571498 -1.883827,0.571498 -1.164163,0 -2.095494,-0.433915 v -1.672161 l 1.079497,-0.07408 v 0.645582 q 0,0.158749 0.04233,0.232832 0.04233,0.07408 0.253999,0.148167 0.22225,0.0635 0.687915,0.0635 z" />
      <path
         id="path890"
         style="font-style:normal;font-variant:normal;font-weight:normal;font-stretch:normal;font-family:'Bree Serif';-inkscape-font-specification:'Bree Serif';fill:#52ac7b;fill-opacity:1;stroke-width:0.264583"
         d="m 61.456783,98.576245 v -1.830911 h -2.995074 v 2.137827 l 0.613832,0.03175 v 0.89958 h -2.561159 v -0.857247 l 0.349249,-0.03175 q 0.306916,-0.03175 0.306916,-0.296332 v -4.921235 l -0.603249,-0.03175 v -0.89958 h 2.561159 v 0.857247 l -0.349249,0.03175 q -0.169333,0.02117 -0.243416,0.09525 -0.07408,0.0635 -0.07408,0.253999 v 1.640412 h 2.995074 v -1.947328 l -0.603248,-0.03175 v -0.89958 h 2.561158 v 0.857247 l -0.349249,0.03175 q -0.306915,0.03175 -0.306915,0.338666 v 4.878901 l 0.603248,0.03175 v 0.89958 h -2.561159 v -0.857247 l 0.349249,-0.03175 q 0.15875,-0.02117 0.232833,-0.08467 0.07408,-0.07408 0.07408,-0.264583 z" />
      <path
         id="path892"
         style="font-style:normal;font-variant:normal;font-weight:normal;font-stretch:normal;font-family:'Bree Serif';-inkscape-font-specification:'Bree Serif';fill:#38423b;fill-opacity:1;stroke-width:0.264583"
         d="m 64.715282,98.576245 v -4.868318 l -0.603249,-0.03175 v -0.89958 h 2.561159 v 0.857247 l -0.349249,0.03175 q -0.306916,0.03175 -0.306916,0.338666 v 4.878901 l 0.603248,0.03175 v 0.89958 h -2.561158 v -0.857247 l 0.349249,-0.03175 q 0.158749,-0.02117 0.232832,-0.08467 0.07408,-0.07408 0.07408,-0.264583 z" />
    </g>
    <text
       xml:space="preserve"
       style="font-style:normal;font-variant:normal;font-weight:normal;font-stretch:normal;font-size:10.5833px;line-height:1.25;font-family:'Bree Serif';-inkscape-font-specification:'Bree Serif';letter-spacing:0px;word-spacing:0px;fill:#38423b;fill-opacity:1;stroke:none;stroke-width:0.264583"
       x="63.681141"
       y="90.588127"
       id="text878"><tspan
         sodipodi:role="line"
         id="tspan876"
         x="63.681141"
         y="90.588127"
         style="font-style:normal;font-variant:normal;font-weight:normal;font-stretch:normal;font-family:'Bree Serif';-inkscape-font-specification:'Bree Serif';fill:#38423b;fill-opacity:1;stroke-width:0.264583">INTERACTIVE</tspan></text>
  </g>
</svg>
