<?xml version="1.0" encoding="UTF-8" standalone="no"?>
<svg
   xmlns:dc="http://purl.org/dc/elements/1.1/"
   xmlns:cc="http://creativecommons.org/ns#"
   xmlns:rdf="http://www.w3.org/1999/02/22-rdf-syntax-ns#"
   xmlns:svg="http://www.w3.org/2000/svg"
   xmlns="http://www.w3.org/2000/svg"
   xmlns:sodipodi="http://sodipodi.sourceforge.net/DTD/sodipodi-0.dtd"
   xmlns:inkscape="http://www.inkscape.org/namespaces/inkscape"
   width="98.955879mm"
   height="15.448632mm"
   viewBox="0 0 98.955879 15.448632"
   version="1.1"
   id="svg8"
   inkscape:version="1.0 (4035a4fb49, 2020-05-01)"
   sodipodi:docname="bdeshiinteractive LOGO.svg">
  <defs
     id="defs2" />
  <sodipodi:namedview
     id="base"
     pagecolor="#ffffff"
     bordercolor="#666666"
     borderopacity="1.0"
     inkscape:pageopacity="0.0"
     inkscape:pageshadow="2"
     inkscape:zoom="1.979899"
     inkscape:cx="125.04496"
     inkscape:cy="-3.896912"
     inkscape:document-units="mm"
     inkscape:current-layer="layer3"
     inkscape:document-rotation="0"
     showgrid="false"
     inkscape:window-width="1920"
     inkscape:window-height="1017"
     inkscape:window-x="-8"
     inkscape:window-y="-8"
     inkscape:window-maximized="1" />
  <metadata
     id="metadata5">
    <rdf:RDF>
      <cc:Work
         rdf:about="">
        <dc:format>image/svg+xml</dc:format>
        <dc:type
           rdf:resource="http://purl.org/dc/dcmitype/StillImage" />
        <dc:title />
      </cc:Work>
    </rdf:RDF>
  </metadata>
  <g
     transform="translate(-28.402988,-75.277078)"
     inkscape:label="Layer 1"
     inkscape:groupmode="layer"
     id="layer1" />
  <g
     transform="translate(-28.402988,-75.277078)"
     inkscape:groupmode="layer"
     id="layer3"
     inkscape:label="Layer 2">
    <g
       aria-label="B-DESHI"
       id="text874"
       style="font-style:normal;font-variant:normal;font-weight:normal;font-stretch:normal;font-size:10.5833px;line-height:1.25;font-family:'Bree Serif';-inkscape-font-specification:'Bree Serif';letter-spacing:0px;word-spacing:0px;fill:#38423b;fill-opacity:1;stroke:none;stroke-width:0.264583"
       transform="translate(0,-17.372519)">
      <path
         d="m 28.455904,92.776597 h 2.984491 q 2.285993,0 2.285993,1.767411 0,0.973664 -0.973664,1.481662 0.624415,0.158749 0.973664,0.582081 0.359832,0.423332 0.359832,1.100664 0,1.02658 -0.698498,1.566328 -0.687914,0.539748 -2.010827,0.539748 h -2.973907 v -0.857247 l 0.349249,-0.03175 q 0.306915,-0.03175 0.306915,-0.296332 v -4.921235 l -0.603248,-0.03175 z m 1.894411,3.831154 v 2.21191 h 0.99483 q 1.375829,0 1.375829,-1.12183 0,-0.529165 -0.349249,-0.80433 -0.338665,-0.28575 -0.973663,-0.28575 z m 0,-2.85749 v 1.915577 h 0.783164 q 0.656165,0 0.96308,-0.264583 0.317499,-0.275165 0.317499,-0.761997 0,-0.486832 -0.317499,-0.687915 -0.306915,-0.201082 -0.888997,-0.201082 z"
         style="font-style:normal;font-variant:normal;font-weight:normal;font-stretch:normal;font-family:'Bree Serif';-inkscape-font-specification:'Bree Serif';fill:#52ac7b;fill-opacity:1;stroke-width:0.264583"
         id="path880" />
      <path
         d="m 34.727171,97.253333 v -0.973664 h 2.772824 v 0.973664 z"
         style="font-style:normal;font-variant:normal;font-weight:normal;font-stretch:normal;font-family:'Bree Serif';-inkscape-font-specification:'Bree Serif';fill:#52ac7b;fill-opacity:1;stroke-width:0.264583"
         id="path882" />
      <path
         d="m 38.180137,99.814491 v -0.857247 l 0.349249,-0.03175 q 0.306916,-0.03175 0.306916,-0.296332 v -4.921235 l -0.603248,-0.03175 v -0.89958 h 2.899824 q 1.555745,0 2.423575,0.825497 0.878414,0.825498 0.878414,2.444743 0,1.005413 -0.264582,1.756827 -0.264583,0.740831 -0.719665,1.164163 -0.910163,0.846664 -2.264826,0.846664 z m 1.947327,-6.011314 v 4.995318 h 1.079497 q 0.910164,0 1.418162,-0.656165 0.507998,-0.656165 0.507998,-1.904994 0,-2.434159 -2.063743,-2.434159 z"
         style="font-style:normal;font-variant:normal;font-weight:normal;font-stretch:normal;font-family:'Bree Serif';-inkscape-font-specification:'Bree Serif';fill:#eb5e55;fill-opacity:1;stroke-width:0.264583"
         id="path884" />
      <path
         d="M 50.235178,99.814491 H 45.20811 v -0.857247 l 0.349249,-0.03175 q 0.306916,-0.03175 0.306916,-0.296332 v -4.921235 l -0.603248,-0.03175 v -0.89958 h 4.847151 v 1.756828 l -1.079497,0.07408 v -0.423332 q 0,-0.179916 -0.05292,-0.253999 -0.05292,-0.07408 -0.253999,-0.07408 h -1.566329 v 1.809744 h 2.444743 v 1.079496 h -2.444743 v 1.979077 h 1.703912 q 0.190499,0 0.243415,-0.07408 0.05292,-0.08467 0.05292,-0.264582 v -0.529165 l 1.079497,0.07408 z"
         style="font-style:normal;font-variant:normal;font-weight:normal;font-stretch:normal;font-family:'Bree Serif';-inkscape-font-specification:'Bree Serif';fill:#eb5e55;fill-opacity:1;stroke-width:0.264583"
         id="path886" />
      <path
         d="m 53.207266,98.861994 q 1.269996,0 1.269996,-1.015996 0,-0.529165 -0.560915,-0.783165 -0.296333,-0.148166 -0.772581,-0.275165 -0.465665,-0.127 -0.783164,-0.254 -0.306916,-0.137583 -0.624415,-0.370415 -0.624415,-0.465665 -0.624415,-1.428746 0,-0.973663 0.666748,-1.523995 0.677332,-0.560915 1.756828,-0.560915 1.09008,0 2.02141,0.433916 v 1.587495 l -1.079496,0.07408 v -0.613832 q 0,-0.158749 -0.04233,-0.232832 -0.116417,-0.201083 -0.751415,-0.201083 -0.624414,0 -0.93133,0.222249 -0.296332,0.22225 -0.296332,0.687915 0,0.338665 0.253999,0.592665 0.169333,0.169332 0.497415,0.285749 0.338665,0.105833 0.709081,0.222249 0.380999,0.116416 0.666748,0.253999 0.296332,0.137583 0.613831,0.380999 0.645581,0.476248 0.645581,1.471079 0,0.99483 -0.719664,1.566328 -0.709081,0.571498 -1.883827,0.571498 -1.164163,0 -2.095494,-0.433915 v -1.672161 l 1.079497,-0.07408 v 0.645582 q 0,0.158749 0.04233,0.232832 0.04233,0.07408 0.253999,0.148167 0.22225,0.0635 0.687915,0.0635 z"
         style="font-style:normal;font-variant:normal;font-weight:normal;font-stretch:normal;font-family:'Bree Serif';-inkscape-font-specification:'Bree Serif';fill:#eb5e55;fill-opacity:1;stroke-width:0.264583"
         id="path888" />
      <path
         d="m 61.456783,98.576245 v -1.830911 h -2.995074 v 2.137827 l 0.613832,0.03175 v 0.89958 h -2.561159 v -0.857247 l 0.349249,-0.03175 q 0.306916,-0.03175 0.306916,-0.296332 v -4.921235 l -0.603249,-0.03175 v -0.89958 h 2.561159 v 0.857247 l -0.349249,0.03175 q -0.169333,0.02117 -0.243416,0.09525 -0.07408,0.0635 -0.07408,0.253999 v 1.640412 h 2.995074 v -1.947328 l -0.603248,-0.03175 v -0.89958 h 2.561158 v 0.857247 l -0.349249,0.03175 q -0.306915,0.03175 -0.306915,0.338666 v 4.878901 l 0.603248,0.03175 v 0.89958 h -2.561159 v -0.857247 l 0.349249,-0.03175 q 0.15875,-0.02117 0.232833,-0.08467 0.07408,-0.07408 0.07408,-0.264583 z"
         style="font-style:normal;font-variant:normal;font-weight:normal;font-stretch:normal;font-family:'Bree Serif';-inkscape-font-specification:'Bree Serif';fill:#52ac7b;fill-opacity:1;stroke-width:0.264583"
         id="path890" />
      <path
         d="m 64.715282,98.576245 v -4.868318 l -0.603249,-0.03175 v -0.89958 h 2.561159 v 0.857247 l -0.349249,0.03175 q -0.306916,0.03175 -0.306916,0.338666 v 4.878901 l 0.603248,0.03175 v 0.89958 h -2.561158 v -0.857247 l 0.349249,-0.03175 q 0.158749,-0.02117 0.232832,-0.08467 0.07408,-0.07408 0.07408,-0.264583 z"
         style="font-style:normal;font-variant:normal;font-weight:normal;font-stretch:normal;font-family:'Bree Serif';-inkscape-font-specification:'Bree Serif';fill:#38423b;fill-opacity:1;stroke-width:0.264583"
         id="path892" />
    </g>
    <g
       style="font-style:normal;font-variant:normal;font-weight:normal;font-stretch:normal;font-size:10.5833px;line-height:1.25;font-family:'Bree Serif';-inkscape-font-specification:'Bree Serif';letter-spacing:0px;word-spacing:0px;fill:#38423b;fill-opacity:1;stroke:none;stroke-width:0.264583"
       id="text878"
       aria-label="INTERACTIVE">
      <path
         id="path841"
         style="font-style:normal;font-variant:normal;font-weight:normal;font-stretch:normal;font-family:'Bree Serif';-inkscape-font-specification:'Bree Serif';fill:#38423b;fill-opacity:1;stroke-width:0.264583"
         d="m 64.675971,89.349881 v -4.868318 l -0.603248,-0.03175 v -0.89958 h 2.561158 v 0.857247 l -0.349248,0.03175 q -0.306916,0.03175 -0.306916,0.338666 v 4.878901 l 0.603248,0.03175 v 0.89958 H 64.019806 V 89.73088 l 0.349249,-0.03175 q 0.15875,-0.02117 0.232833,-0.08467 0.07408,-0.07408 0.07408,-0.264583 z" />
      <path
         id="path843"
         style="font-style:normal;font-variant:normal;font-weight:normal;font-stretch:normal;font-family:'Bree Serif';-inkscape-font-specification:'Bree Serif';fill:#38423b;fill-opacity:1;stroke-width:0.264583"
         d="M 67.265076,90.588127 V 89.73088 l 0.380999,-0.03175 q 0.275166,-0.02117 0.275166,-0.296332 v -4.921235 l -0.603248,-0.03175 v -0.89958 h 1.904993 l 2.995074,4.857734 h 0.02117 v -3.926404 l -0.698498,-0.03175 v -0.89958 h 2.582325 v 0.857247 l -0.380999,0.03175 q -0.253999,0.02117 -0.253999,0.328082 v 5.820815 H 72.24981 L 69.191237,85.65631 h -0.02117 v 4.000487 l 0.687914,0.03175 v 0.89958 z" />
      <path
         id="path845"
         style="font-style:normal;font-variant:normal;font-weight:normal;font-stretch:normal;font-family:'Bree Serif';-inkscape-font-specification:'Bree Serif';fill:#38423b;fill-opacity:1;stroke-width:0.264583"
         d="M 76.695623,89.402798 V 84.59798 h -0.825497 q -0.243416,0 -0.243416,0.328082 v 0.497415 l -1.079497,-0.07408 v -1.799161 h 5.535066 v 1.799161 l -1.079496,0.07408 v -0.497415 q 0,-0.179916 -0.05292,-0.253999 -0.05292,-0.07408 -0.253999,-0.07408 h -0.719664 v 5.058817 l 0.83608,0.03175 v 0.89958 h -2.98449 V 89.73088 l 0.560915,-0.03175 q 0.306915,-0.03175 0.306915,-0.296332 z" />
      <path
         id="path847"
         style="font-style:normal;font-variant:normal;font-weight:normal;font-stretch:normal;font-family:'Bree Serif';-inkscape-font-specification:'Bree Serif';fill:#38423b;fill-opacity:1;stroke-width:0.264583"
         d="M 85.625116,90.588127 H 80.598049 V 89.73088 l 0.349248,-0.03175 q 0.306916,-0.03175 0.306916,-0.296332 v -4.921235 l -0.603248,-0.03175 v -0.89958 h 4.847151 v 1.756828 l -1.079496,0.07408 v -0.423332 q 0,-0.179916 -0.05292,-0.253999 -0.05292,-0.07408 -0.253999,-0.07408 h -1.566328 v 1.809745 h 2.444742 v 1.079496 h -2.444742 v 1.979077 h 1.703911 q 0.190499,0 0.243416,-0.07408 0.05292,-0.08467 0.05292,-0.264582 v -0.529165 l 1.079497,0.07408 z" />
      <path
         id="path849"
         style="font-style:normal;font-variant:normal;font-weight:normal;font-stretch:normal;font-family:'Bree Serif';-inkscape-font-specification:'Bree Serif';fill:#38423b;fill-opacity:1;stroke-width:0.264583"
         d="M 86.385295,90.588127 V 89.73088 l 0.349248,-0.03175 q 0.306916,-0.03175 0.306916,-0.296332 v -4.921235 l -0.603248,-0.03175 v -0.89958 h 2.889241 q 1.227663,0 1.883827,0.455082 0.656165,0.455082 0.656165,1.492245 0,0.719664 -0.380999,1.18533 -0.370416,0.465665 -0.888997,0.677331 0.380999,0.137583 0.603248,0.645581 l 0.761997,1.661578 0.603249,0.02117 v 0.89958 H 89.951867 V 89.73088 l 0.306915,-0.03175 q 0.243416,-0.03175 0.243416,-0.190499 0,-0.0635 -0.04233,-0.148167 l -0.497415,-1.05833 q -0.116416,-0.264582 -0.264583,-0.370415 -0.137583,-0.116416 -0.402165,-0.116416 h -0.96308 v 1.841494 l 0.687914,0.03175 v 0.89958 z m 1.947327,-3.778238 h 0.920747 q 1.301746,0 1.301746,-1.164163 0,-0.666748 -0.349249,-0.86783 -0.338666,-0.201083 -1.100663,-0.201083 h -0.772581 z" />
      <path
         id="path851"
         style="font-style:normal;font-variant:normal;font-weight:normal;font-stretch:normal;font-family:'Bree Serif';-inkscape-font-specification:'Bree Serif';fill:#38423b;fill-opacity:1;stroke-width:0.264583"
         d="m 93.401526,89.402798 1.703911,-4.931818 -0.666747,-0.0635 v -0.857247 h 2.423575 l 2.158993,6.106564 h 0.01058 l 0.603248,0.03175 v 0.89958 H 96.904598 V 89.73088 l 0.402166,-0.03175 q 0.179916,-0.02117 0.243416,-0.08467 0.0635,-0.0635 0.01058,-0.232833 l -0.222249,-0.656165 h -2.476492 l -0.317499,0.931331 0.634998,0.03175 v 0.89958 H 92.734778 V 89.73088 l 0.349249,-0.03175 q 0.22225,-0.02117 0.317499,-0.296332 z m 2.698742,-4.667236 -0.984247,3.016241 h 1.968494 l -0.952497,-3.016241 z" />
      <path
         id="path853"
         style="font-style:normal;font-variant:normal;font-weight:normal;font-stretch:normal;font-family:'Bree Serif';-inkscape-font-specification:'Bree Serif';fill:#38423b;fill-opacity:1;stroke-width:0.264583"
         d="m 104.30348,84.672063 q -0.11641,-0.201083 -0.86783,-0.201083 -0.98425,0 -1.49224,0.666748 -0.508,0.666748 -0.508,1.92616 0,2.614075 1.95791,2.614075 0.0318,0 0.27516,0 0.254,0 0.47625,-0.0635 0.22225,-0.07408 0.26458,-0.148167 0.0423,-0.07408 0.0423,-0.232832 v -0.846664 l 1.07949,0.07408 v 1.830911 q -0.82549,0.433915 -2.09549,0.433915 -1.61924,0 -2.47649,-0.910164 -0.84666,-0.910164 -0.84666,-2.709324 0,-0.994831 0.28574,-1.735662 0.28575,-0.740831 0.77259,-1.153579 0.95249,-0.793748 2.26482,-0.793748 1.05833,0 1.98966,0.433916 v 1.799161 l -1.07949,0.07408 v -0.825498 q 0,-0.158749 -0.0423,-0.232832 z" />
      <path
         id="path855"
         style="font-style:normal;font-variant:normal;font-weight:normal;font-stretch:normal;font-family:'Bree Serif';-inkscape-font-specification:'Bree Serif';fill:#38423b;fill-opacity:1;stroke-width:0.264583"
         d="M 108.25949,89.402798 V 84.59798 h -0.8255 q -0.24342,0 -0.24342,0.328082 v 0.497415 l -1.07949,-0.07408 v -1.799161 h 5.53506 v 1.799161 l -1.07949,0.07408 v -0.497415 q 0,-0.179916 -0.0529,-0.253999 -0.0529,-0.07408 -0.254,-0.07408 h -0.71966 v 5.058817 l 0.83608,0.03175 v 0.89958 h -2.98449 V 89.73088 l 0.56091,-0.03175 q 0.30692,-0.03175 0.30692,-0.296332 z" />
      <path
         id="path857"
         style="font-style:normal;font-variant:normal;font-weight:normal;font-stretch:normal;font-family:'Bree Serif';-inkscape-font-specification:'Bree Serif';fill:#38423b;fill-opacity:1;stroke-width:0.264583"
         d="m 112.79691,89.349881 v -4.868318 l -0.60325,-0.03175 v -0.89958 h 2.56116 v 0.857247 l -0.34925,0.03175 q -0.30691,0.03175 -0.30691,0.338666 v 4.878901 l 0.60325,0.03175 v 0.89958 h -2.56116 V 89.73088 L 112.49,89.69913 q 0.15875,-0.02117 0.23283,-0.08467 0.0741,-0.07408 0.0741,-0.264583 z" />
      <path
         id="path859"
         style="font-style:normal;font-variant:normal;font-weight:normal;font-stretch:normal;font-family:'Bree Serif';-inkscape-font-specification:'Bree Serif';fill:#38423b;fill-opacity:1;stroke-width:0.264583"
         d="m 117.1746,84.809646 1.41816,4.265069 h 0.0529 l 1.48167,-4.582568 -0.64559,-0.04233 v -0.89958 h 2.43416 v 0.857247 l -0.34925,0.03175 q -0.13758,0.01058 -0.20108,0.08467 -0.0635,0.0635 -0.127,0.232833 l -2.00024,5.831398 h -1.37583 l -2.15899,-6.106564 -0.60325,-0.03175 v -0.89958 h 2.73049 v 0.857247 l -0.34925,0.03175 q -0.32808,0.02117 -0.32808,0.253999 0,0.05292 0.0212,0.116417 z" />
      <path
         id="path861"
         style="font-style:normal;font-variant:normal;font-weight:normal;font-stretch:normal;font-family:'Bree Serif';-inkscape-font-specification:'Bree Serif';fill:#38423b;fill-opacity:1;stroke-width:0.264583"
         d="M 127.35887,90.588127 H 122.3318 V 89.73088 l 0.34925,-0.03175 q 0.30692,-0.03175 0.30692,-0.296332 v -4.921235 l -0.60325,-0.03175 v -0.89958 h 4.84715 v 1.756828 l -1.0795,0.07408 v -0.423332 q 0,-0.179916 -0.0529,-0.253999 -0.0529,-0.07408 -0.254,-0.07408 h -1.56633 v 1.809745 h 2.44474 v 1.079496 h -2.44474 v 1.979077 h 1.70391 q 0.1905,0 0.24342,-0.07408 0.0529,-0.08467 0.0529,-0.264582 v -0.529165 l 1.0795,0.07408 z" />
    </g>
    <text
       id="text866"
       y="86.836487"
       x="72.970184"
       style="font-style:normal;font-weight:normal;font-size:10.5833px;line-height:1.25;font-family:sans-serif;letter-spacing:0px;word-spacing:0px;fill:#000000;fill-opacity:1;stroke:none;stroke-width:0.264583"
       xml:space="preserve"><tspan
         style="stroke-width:0.264583"
         y="86.836487"
         x="72.970184"
         id="tspan864"
         sodipodi:role="line"></tspan></text>
  </g>
</svg>
