<?xml version="1.0" encoding="UTF-8" standalone="no"?>
<svg
   xmlns:dc="http://purl.org/dc/elements/1.1/"
   xmlns:cc="http://creativecommons.org/ns#"
   xmlns:rdf="http://www.w3.org/1999/02/22-rdf-syntax-ns#"
   xmlns:svg="http://www.w3.org/2000/svg"
   xmlns="http://www.w3.org/2000/svg"
   xmlns:sodipodi="http://sodipodi.sourceforge.net/DTD/sodipodi-0.dtd"
   xmlns:inkscape="http://www.inkscape.org/namespaces/inkscape"
   width="137.10376mm"
   height="20.802538mm"
   viewBox="0 0 137.10376 20.802538"
   version="1.1"
   id="svg8"
   inkscape:version="1.0 (4035a4fb49, 2020-05-01)"
   sodipodi:docname="bdeshiinteractive LOGO.svg">
  <defs
     id="defs2" />
  <sodipodi:namedview
     id="base"
     pagecolor="#ffffff"
     bordercolor="#666666"
     borderopacity="1.0"
     inkscape:pageopacity="0.0"
     inkscape:pageshadow="2"
     inkscape:zoom="1.979899"
     inkscape:cx="165.73668"
     inkscape:cy="131.788"
     inkscape:document-units="mm"
     inkscape:current-layer="layer3"
     inkscape:document-rotation="0"
     showgrid="false"
     inkscape:window-width="1920"
     inkscape:window-height="1017"
     inkscape:window-x="-8"
     inkscape:window-y="-8"
     inkscape:window-maximized="1" />
  <metadata
     id="metadata5">
    <rdf:RDF>
      <cc:Work
         rdf:about="">
        <dc:format>image/svg+xml</dc:format>
        <dc:type
           rdf:resource="http://purl.org/dc/dcmitype/StillImage" />
        <dc:title />
      </cc:Work>
    </rdf:RDF>
  </metadata>
  <g
     transform="translate(-22.497313,-72.285731)"
     inkscape:label="Layer 1"
     inkscape:groupmode="layer"
     id="layer1" />
  <g
     transform="translate(-22.497313,-72.285731)"
     inkscape:groupmode="layer"
     id="layer3"
     inkscape:label="Layer 2">
    <g
       id="g943"
       transform="translate(-33.811813,-10.506259)">
      <g
         aria-label="B-DESHI"
         transform="scale(1.0145878,0.98562196)"
         id="g917"
         style="font-style:normal;font-variant:normal;font-weight:normal;font-stretch:normal;font-size:15.7299px;line-height:1.25;font-family:jura;-inkscape-font-specification:jura;letter-spacing:0px;word-spacing:0px;fill:#000000;fill-opacity:1;stroke:none;stroke-width:0.391262">
        <path
           d="m 55.916355,94.145592 q -0.416845,0 -0.416845,-0.416845 v -9.304295 q 0,-0.416845 0.416845,-0.416845 h 4.10553 q 1.156155,0 1.74603,0.589875 0.59774,0.58201 0.59774,1.71457 v 0.42471 q 0,1.234805 -0.794365,1.74603 1.376375,0.56628 1.376375,2.45388 v 0.495495 q 0,1.33705 -0.69212,2.02917 -0.684255,0.684255 -2.02917,0.684255 z m 0.40898,-0.825825 h 3.90104 q 0.998855,0 1.44716,-0.448305 0.448305,-0.448305 0.448305,-1.439295 v -0.495495 q 0,-0.99099 -0.448305,-1.43143 -0.44044,-0.44044 -1.44716,-0.44044 h -3.90104 z m 0,-5.08079 h 3.814525 q 0.715715,0 1.05391,-0.36179 0.34606,-0.369655 0.34606,-1.140425 v -0.42471 q 0,-0.7865 -0.36179,-1.13256 -0.353925,-0.34606 -1.156155,-0.34606 h -3.69655 z"
           style="font-style:normal;font-variant:normal;font-weight:normal;font-stretch:normal;font-size:15.73px;font-family:jura;-inkscape-font-specification:jura;fill:#52ac7b;fill-opacity:1;stroke-width:0.391262"
           id="path903" />
        <path
           d="m 65.340099,90.283877 q -0.1573,0 -0.275275,-0.11011 -0.11011,-0.117975 -0.11011,-0.275275 0,-0.165165 0.11011,-0.275275 0.117975,-0.11011 0.275275,-0.11011 h 4.34148 q 0.165165,0 0.275275,0.11011 0.11011,0.11011 0.11011,0.275275 0,0.1573 -0.11011,0.275275 -0.11011,0.11011 -0.275275,0.11011 z"
           style="font-style:normal;font-variant:normal;font-weight:normal;font-stretch:normal;font-size:15.73px;font-family:jura;-inkscape-font-specification:jura;fill:#52ac7b;fill-opacity:1;stroke:none;stroke-width:0.391262;stroke-opacity:1"
           id="path905" />
        <path
           d="m 73.121042,94.145592 q -0.416845,0 -0.416845,-0.416845 v -9.304295 q 0,-0.416845 0.416845,-0.416845 h 3.79093 q 1.958385,0 2.84713,0.89661 0.89661,0.89661 0.89661,2.854995 v 2.634775 q 0,1.958385 -0.89661,2.854995 -0.888745,0.89661 -2.84713,0.89661 z m 0.40898,-0.825825 h 3.38195 q 1.06964,0 1.706705,-0.28314 0.64493,-0.28314 0.92807,-0.920205 0.28314,-0.64493 0.28314,-1.722435 v -2.634775 q 0,-1.06964 -0.28314,-1.706705 -0.28314,-0.64493 -0.92807,-0.92807 -0.637065,-0.291005 -1.706705,-0.291005 h -3.38195 z"
           style="font-style:normal;font-variant:normal;font-weight:normal;font-stretch:normal;font-size:15.73px;font-family:jura;-inkscape-font-specification:jura;fill:#eb5e55;fill-opacity:1;stroke-width:0.391262"
           id="path907" />
        <path
           d="m 83.812527,94.145592 q -0.416845,0 -0.416845,-0.416845 v -9.304295 q 0,-0.416845 0.416845,-0.416845 h 5.890885 q 0.416845,0 0.416845,0.416845 0,0.40898 -0.416845,0.40898 h -5.481905 v 3.767335 h 3.625765 q 0.416845,0 0.416845,0.40898 0,0.416845 -0.416845,0.416845 h -3.625765 v 3.893175 h 5.481905 q 0.416845,0 0.416845,0.40898 0,0.416845 -0.416845,0.416845 z"
           style="font-style:normal;font-variant:normal;font-weight:normal;font-stretch:normal;font-size:15.73px;font-family:jura;-inkscape-font-specification:jura;fill:#eb5e55;fill-opacity:1;stroke-width:0.391262"
           id="path909" />
        <path
           d="m 94.816399,94.129862 q -1.407835,0 -2.09209,-0.621335 -0.67639,-0.6292 -0.72358,-1.974115 -0.0079,-0.18876 0.102245,-0.29887 0.117975,-0.117975 0.306735,-0.117975 0.18876,0 0.29887,0.11011 0.11011,0.11011 0.12584,0.29887 0.03146,0.99099 0.4719,1.38424 0.44044,0.39325 1.51008,0.39325 h 2.265119 q 1.11683,0 1.549405,-0.432575 0.44044,-0.44044 0.44044,-1.54154 0,-1.11683 -0.44044,-1.549405 -0.432575,-0.44044 -1.549405,-0.44044 h -2.155009 q -1.38424,0 -2.02917,-0.64493 -0.64493,-0.64493 -0.64493,-2.021305 0,-1.376375 0.637065,-2.021305 0.64493,-0.64493 2.021305,-0.64493 h 2.202199 q 1.32132,0 1.958385,0.589875 0.64493,0.589875 0.69212,1.85614 0.01573,0.18876 -0.102245,0.306735 -0.11011,0.11011 -0.306735,0.11011 -0.180895,0 -0.291005,-0.11011 -0.11011,-0.11011 -0.12584,-0.29887 -0.03146,-0.904475 -0.44044,-1.266265 -0.40898,-0.36179 -1.38424,-0.36179 h -2.202199 q -1.030315,0 -1.43143,0.40898 -0.401115,0.401115 -0.401115,1.43143 0,1.030315 0.401115,1.439295 0.40898,0.401115 1.44716,0.401115 h 2.155009 q 1.46289,0 2.13928,0.684255 0.67639,0.67639 0.67639,2.131415 0,1.455025 -0.67639,2.131415 -0.67639,0.668525 -2.13928,0.668525 z"
           style="font-style:normal;font-variant:normal;font-weight:normal;font-stretch:normal;font-size:15.73px;font-family:jura;-inkscape-font-specification:jura;fill:#eb5e55;fill-opacity:1;stroke-width:0.391262"
           id="path911" />
        <path
           d="m 103.04491,94.145592 q -0.18876,0 -0.30674,-0.11011 -0.11011,-0.117975 -0.11011,-0.306735 v -9.304295 q 0,-0.18876 0.11011,-0.29887 0.11798,-0.117975 0.30674,-0.117975 0.18876,0 0.29887,0.117975 0.11011,0.11011 0.11011,0.29887 v 4.16845 h 6.59873 v -4.16845 q 0,-0.18876 0.11011,-0.29887 0.11011,-0.117975 0.29887,-0.117975 0.18876,0 0.29887,0.117975 0.11798,0.11011 0.11798,0.29887 v 9.304295 q 0,0.18876 -0.11798,0.306735 -0.11011,0.11011 -0.29887,0.11011 -0.18876,0 -0.29887,-0.11011 -0.11011,-0.117975 -0.11011,-0.306735 v -4.31002 h -6.59873 v 4.31002 q 0,0.18876 -0.11011,0.306735 -0.11011,0.11011 -0.29887,0.11011 z"
           style="font-style:normal;font-variant:normal;font-weight:normal;font-stretch:normal;font-size:15.73px;font-family:jura;-inkscape-font-specification:jura;fill:#52ac7b;fill-opacity:1;stroke-width:0.391262"
           id="path913" />
        <path
           d="m 114.22795,94.145592 q -0.19662,0 -0.30673,-0.11011 -0.11011,-0.11011 -0.11011,-0.306735 v -9.31216 q 0,-0.196625 0.11011,-0.306735 0.11011,-0.11011 0.30673,-0.11011 0.18876,0 0.29887,0.11011 0.11011,0.11011 0.11011,0.306735 v 9.31216 q 0,0.196625 -0.11011,0.306735 -0.11011,0.11011 -0.29887,0.11011 z"
           style="font-style:normal;font-variant:normal;font-weight:normal;font-stretch:normal;font-size:15.73px;font-family:jura;-inkscape-font-specification:jura;fill:#38423b;fill-opacity:1;stroke-width:0.391262"
           id="path915" />
      </g>
      <g
         aria-label="INTERACTIVE"
         transform="matrix(0.98408562,0,0,1.0101449,0.79048617,-2.059168)"
         id="g941"
         style="font-style:normal;font-variant:normal;font-weight:normal;font-stretch:normal;font-size:13.678px;line-height:1.25;font-family:jura;-inkscape-font-specification:jura;letter-spacing:0px;word-spacing:0px;fill:#000000;fill-opacity:1;stroke:none;stroke-width:0.341953">
        <path
           d="m 116.97375,104.51098 q -0.17098,0 -0.26672,-0.0958 -0.0958,-0.0957 -0.0958,-0.26672 v -8.097375 q 0,-0.170975 0.0958,-0.266721 0.0957,-0.09575 0.26672,-0.09575 0.16414,0 0.25988,0.09575 0.0957,0.09575 0.0957,0.266721 v 8.097375 q 0,0.17098 -0.0957,0.26672 -0.0957,0.0958 -0.25988,0.0958 z"
           style="font-style:normal;font-variant:normal;font-weight:normal;font-stretch:normal;font-family:jura;-inkscape-font-specification:jura;fill:#38423b;fill-opacity:1;stroke-width:0.341953"
           id="path919" />
        <path
           d="m 120.25968,104.51098 q -0.36247,0 -0.36247,-0.36247 v -8.090536 q 0,-0.362467 0.36247,-0.362467 0.19149,0 0.3693,0.212009 l 5.79263,7.440834 h -0.16413 v -7.290376 q 0,-0.362467 0.36247,-0.362467 0.35562,0 0.35562,0.362467 v 8.090536 q 0,0.36247 -0.35562,0.36247 -0.19834,0 -0.36931,-0.21201 l -5.79947,-7.440833 h 0.16413 v 7.290373 q 0,0.36247 -0.35562,0.36247 z"
           style="font-style:normal;font-variant:normal;font-weight:normal;font-stretch:normal;font-family:jura;-inkscape-font-specification:jura;fill:#38423b;fill-opacity:1;stroke-width:0.341953"
           id="path921" />
        <path
           d="m 132.14693,104.51782 q -0.16414,0 -0.26672,-0.0957 -0.0958,-0.0957 -0.0958,-0.25988 v -7.755427 h -2.90658 q -0.16413,0 -0.26672,-0.09575 -0.0957,-0.09575 -0.0957,-0.259882 0,-0.164136 0.0957,-0.259882 0.10259,-0.102585 0.26672,-0.102585 h 6.53809 q 0.16414,0 0.25988,0.102585 0.0958,0.09575 0.0958,0.259882 0,0.164136 -0.0958,0.259882 -0.0957,0.09575 -0.25988,0.09575 h -2.91341 v 7.755427 q 0,0.1573 -0.10259,0.25988 -0.0958,0.0957 -0.25304,0.0957 z"
           style="font-style:normal;font-variant:normal;font-weight:normal;font-stretch:normal;font-family:jura;-inkscape-font-specification:jura;fill:#38423b;fill-opacity:1;stroke-width:0.341953"
           id="path923" />
        <path
           d="m 137.67775,104.51098 q -0.36246,0 -0.36246,-0.36247 v -8.090536 q 0,-0.362467 0.36246,-0.362467 h 5.12242 q 0.36246,0 0.36246,0.362467 0,0.355628 -0.36246,0.355628 h -4.76679 v 3.275882 h 3.15278 q 0.36247,0 0.36247,0.355626 0,0.36247 -0.36247,0.36247 h -3.15278 v 3.3853 h 4.76679 q 0.36246,0 0.36246,0.35563 0,0.36247 -0.36246,0.36247 z"
           style="font-style:normal;font-variant:normal;font-weight:normal;font-stretch:normal;font-family:jura;-inkscape-font-specification:jura;fill:#38423b;fill-opacity:1;stroke-width:0.341953"
           id="path925" />
        <path
           d="m 150.94606,104.52466 q -0.15046,0.0889 -0.27356,0.0615 -0.1231,-0.0274 -0.21885,-0.17098 l -2.24319,-3.56996 h -2.50992 v 3.30324 q 0,0.36247 -0.35562,0.36247 -0.36247,0 -0.36247,-0.36247 v -8.090536 q 0,-0.362467 0.36247,-0.362467 h 3.20065 q 1.16947,0 1.76446,0.601832 0.60183,0.601832 0.60183,1.771301 v 0.410341 q 0,1.032689 -0.47189,1.620839 -0.47189,0.58816 -1.39515,0.7181 l 2.0175,3.21433 q 0.19149,0.31459 -0.11626,0.49241 z m -5.24552,-4.39748 h 2.84503 q 0.86171,0 1.25154,-0.389823 0.39666,-0.396662 0.39666,-1.258376 V 98.06864 q 0,-0.868553 -0.39666,-1.258376 -0.38983,-0.396662 -1.25154,-0.396662 h -2.84503 z"
           style="font-style:normal;font-variant:normal;font-weight:normal;font-stretch:normal;font-family:jura;-inkscape-font-specification:jura;fill:#38423b;fill-opacity:1;stroke-width:0.341953"
           id="path927" />
        <path
           d="m 152.41302,104.47678 q -0.32827,-0.14362 -0.19833,-0.47873 l 3.39214,-8.022144 q 0.10943,-0.280399 0.40351,-0.280399 h 0.041 q 0.2804,0.0068 0.39666,0.280399 l 3.39215,8.022144 q 0.13678,0.33511 -0.1915,0.47873 -0.33511,0.13678 -0.46505,-0.19149 l -0.90959,-2.15428 h -4.47954 l -0.90959,2.15428 q -0.13678,0.32827 -0.47189,0.19149 z m 1.67556,-3.06387 h 3.88455 l -1.94228,-4.582129 z"
           style="font-style:normal;font-variant:normal;font-weight:normal;font-stretch:normal;font-family:jura;-inkscape-font-specification:jura;fill:#38423b;fill-opacity:1;stroke-width:0.341953"
           id="path929" />
        <path
           d="m 164.05257,104.51098 q -1.48406,0 -2.16796,-0.6839 -0.6839,-0.6839 -0.6839,-2.16796 v -3.111749 q 0,-1.497742 0.67706,-2.174803 0.6839,-0.677061 2.16112,-0.677061 h 1.65504 q 1.25838,0 1.87389,0.526603 0.61551,0.519764 0.67706,1.675555 0.0205,0.184653 -0.0752,0.280399 -0.0889,0.09575 -0.26672,0.09575 -0.34195,0 -0.37615,-0.362467 -0.0479,-0.848036 -0.46505,-1.169469 -0.41718,-0.328272 -1.3678,-0.328272 h -1.65504 q -0.78648,0 -1.25153,0.20517 -0.46506,0.198331 -0.67023,0.670222 -0.19833,0.465052 -0.19833,1.258377 v 3.111745 q 0,0.79332 0.20517,1.25837 0.20517,0.46505 0.67023,0.67022 0.46505,0.20517 1.25837,0.20517 h 1.64136 q 0.95062,0 1.3678,-0.32143 0.41718,-0.32827 0.46505,-1.17631 0.0342,-0.36246 0.37615,-0.36246 0.17781,0 0.26672,0.10258 0.0958,0.0958 0.0752,0.27356 -0.0615,1.15579 -0.67706,1.68239 -0.61551,0.51977 -1.87389,0.51977 z"
           style="font-style:normal;font-variant:normal;font-weight:normal;font-stretch:normal;font-family:jura;-inkscape-font-specification:jura;fill:#38423b;fill-opacity:1;stroke-width:0.341953"
           id="path931" />
        <path
           d="m 173.10078,104.51782 q -0.16413,0 -0.26672,-0.0957 -0.0957,-0.0957 -0.0957,-0.25988 v -7.755427 h -2.90658 q -0.16413,0 -0.26672,-0.09575 -0.0957,-0.09575 -0.0957,-0.259882 0,-0.164136 0.0957,-0.259882 0.10259,-0.102585 0.26672,-0.102585 h 6.53809 q 0.16413,0 0.25988,0.102585 0.0957,0.09575 0.0957,0.259882 0,0.164136 -0.0957,0.259882 -0.0957,0.09575 -0.25988,0.09575 h -2.91342 v 7.755427 q 0,0.1573 -0.10258,0.25988 -0.0957,0.0957 -0.25305,0.0957 z"
           style="font-style:normal;font-variant:normal;font-weight:normal;font-stretch:normal;font-family:jura;-inkscape-font-specification:jura;fill:#38423b;fill-opacity:1;stroke-width:0.341953"
           id="path933" />
        <path
           d="m 178.63161,104.51098 q -0.17097,0 -0.26672,-0.0958 -0.0957,-0.0957 -0.0957,-0.26672 v -8.097375 q 0,-0.170975 0.0957,-0.266721 0.0958,-0.09575 0.26672,-0.09575 0.16414,0 0.25989,0.09575 0.0957,0.09575 0.0957,0.266721 v 8.097375 q 0,0.17098 -0.0957,0.26672 -0.0958,0.0958 -0.25989,0.0958 z"
           style="font-style:normal;font-variant:normal;font-weight:normal;font-stretch:normal;font-family:jura;-inkscape-font-specification:jura;fill:#38423b;fill-opacity:1;stroke-width:0.341953"
           id="path935" />
        <path
           d="m 184.38642,104.51098 q -0.23253,0 -0.33512,-0.24621 l -3.54944,-8.056338 q -0.0889,-0.198331 0,-0.328272 0.0958,-0.129941 0.25989,-0.164136 0.28039,-0.06839 0.38982,0.20517 l 3.4195,7.755426 h -0.25304 l 3.39898,-7.755426 q 0.10942,-0.27356 0.39666,-0.20517 0.17781,0.03419 0.25988,0.164136 0.0821,0.129941 0,0.328272 l -3.56312,8.056338 q -0.10258,0.24621 -0.34879,0.24621 z"
           style="font-style:normal;font-variant:normal;font-weight:normal;font-stretch:normal;font-family:jura;-inkscape-font-specification:jura;fill:#38423b;fill-opacity:1;stroke-width:0.341953"
           id="path937" />
        <path
           d="m 190.25257,104.51098 q -0.36247,0 -0.36247,-0.36247 v -8.090536 q 0,-0.362467 0.36247,-0.362467 h 5.12241 q 0.36246,0 0.36246,0.362467 0,0.355628 -0.36246,0.355628 h -4.76679 v 3.275882 h 3.15278 q 0.36247,0 0.36247,0.355626 0,0.36247 -0.36247,0.36247 h -3.15278 v 3.3853 h 4.76679 q 0.36246,0 0.36246,0.35563 0,0.36247 -0.36246,0.36247 z"
           style="font-style:normal;font-variant:normal;font-weight:normal;font-stretch:normal;font-family:jura;-inkscape-font-specification:jura;fill:#38423b;fill-opacity:1;stroke-width:0.341953"
           id="path939" />
      </g>
    </g>
  </g>
</svg>
