<?xml version="1.0" encoding="utf-8"?>
<!-- Generator: Adobe Illustrator 26.0.3, SVG Export Plug-In . SVG Version: 6.00 Build 0)  -->
<svg version="1.1" id="Layer_1" xmlns="http://www.w3.org/2000/svg" xmlns:xlink="http://www.w3.org/1999/xlink" x="0px" y="0px"
	 viewBox="0 0 500.6 500.6" style="enable-background:new 0 0 500.6 500.6;" xml:space="preserve">
<style type="text/css">
	.st0{fill:#F20039;}
	.st1{fill:#F74851;}
	.st2{fill:#FB6964;}
	.st3{fill:#FFFFFF;}
	.st4{fill:#121113;}
	.st5{fill:none;}
	.st6{fill:#8AE880;}
	.st7{fill:#5ECB60;}
	.st8{fill:#2FA948;}
	.st9{fill:#1B7563;}
	.st10{fill:none;stroke:#121113;stroke-width:23;stroke-miterlimit:10;}
</style>
<g id="Layer_1-2">
	<circle class="st0" cx="252.9" cy="253.1" r="237.9"/>
	<path class="st1" d="M7.1,204.2h483.3c-2.8-14-6.7-27.8-11.8-41.2h-125c-30.9-60.1-104.7-83.8-164.7-52.9
		c-22.7,11.7-41.2,30.2-52.9,52.9H19C13.9,176.4,9.9,190.2,7.1,204.2z"/>
	<path class="st2" d="M0.5,245.4H498c-0.4-13.8-1.9-27.6-4.6-41.2H5.1C2.4,217.8,0.9,231.6,0.5,245.4z"/>
	<path class="st3" d="M148.7,245.4c0-55.2,44.8-100,100-100s100,44.8,100,100"/>
	<polygon class="st4" points="402.4,260.2 368.6,260.2 334.8,260.2 351.7,236.1 368.6,212 385.5,236.1 	"/>
	<polygon class="st4" points="157.2,260.2 123.4,260.2 89.6,260.2 106.5,236.1 123.4,212 140.3,236.1 	"/>
	<polygon class="st4" points="104.3,256.2 70.5,256.2 36.7,256.2 53.6,232.1 70.5,208 87.4,232.1 	"/>
	<polygon class="st4" points="96.7,227.3 70.1,227.3 43.6,227.3 56.8,208.4 70.1,189.4 83.4,208.4 	"/>
	<polygon class="st4" points="75.1,253.3 38.4,253.3 7.1,253.3 20.1,221.3 38.4,189.4 56.8,221.3 	"/>
	<polygon class="st4" points="454.2,253.3 420.4,253.3 386.6,253.3 403.5,229.2 420.4,205.1 437.3,229.2 	"/>
	<polygon class="st4" points="446.6,224.4 420,224.4 393.4,224.4 406.7,205.5 420,186.5 433.3,205.5 	"/>
	<polygon class="st4" points="490.4,250.3 453.7,250.3 417,250.3 435.3,218.4 453.7,186.5 472,218.4 	"/>
	<path class="st5" d="M476.1,256.2c0,127.7-103.6,231.3-231.3,231.3S13.5,383.9,13.5,256.2H476.1z"/>
	<path class="st6" d="M473.2,342.2c5.6-27,8.4-54.4,8.4-82H19c0,27.6,2.8,55,8.4,82H473.2z"/>
	<path class="st7" d="M445.6,396.6c12.3-22.7,21.6-46.9,27.6-72H27.4c5.9,25.1,15.2,49.3,27.6,72H445.6z"/>
	<path class="st8" d="M48.3,396.6c14.2,20.4,31.8,38.2,52.2,52.4h296.4c20.4-14.2,38-32,52.2-52.4H48.3z"/>
	<path class="st9" d="M398.4,449H102c40.1,26.5,91.8,42.5,148.2,42.5S358.3,475.5,398.4,449z"/>
	<path class="st4" d="M354.6,290.5c-21.7-15.3-44.4,7.4-29.1,29.1C347.2,334.9,369.9,312.2,354.6,290.5z"/>
	<path class="st4" d="M354.6,371.9c-21.7-15.3-44.4,7.4-29.1,29.1C347.2,416.3,369.9,393.6,354.6,371.9z"/>
	<path class="st4" d="M284.8,331.2L284.8,331.2c-11.8,16.8-1,34.1,14.5,34.1c10.8-0.2,19.4-8.8,19.6-19.6
		C318.9,330.2,301.6,319.4,284.8,331.2z"/>
	<path class="st4" d="M201.2,326.2h-21.1v-31.5C162,276.6,141,288,141,305.1v21.1h-31.5c-18.1,18.1-6.7,39.1,10.4,39.1H141v30.2
		c0,0.3,0.1,0.5,0.3,0.7c18.3,18.9,39.6,7.5,39.6-9.8v-21.1H202c11,0,19.6-8.6,18.8-19.6c0-10.8-8.7-19.5-19.5-19.5
		C201.3,326.2,201.2,326.2,201.2,326.2z"/>
	<path class="st4" d="M395.3,331.2c-21.7-15.3-44.4,7.4-29.1,29.1C387.9,375.6,410.6,352.9,395.3,331.2z"/>
	<path class="st3" d="M199.3,267.6c22.2,27.3,62.3,31.4,89.6,9.2c3.4-2.8,6.5-5.8,9.2-9.2H199.3z"/>
	<line class="st10" x1="13.5" y1="256.2" x2="484.2" y2="256.2"/>
	<path class="st4" d="M250.3,25c123.9,0.2,224.3,100.8,224.1,224.8S373.6,474,249.6,473.8S25.3,373,25.5,249.1
		C25.7,159,79.6,77.8,162.6,42.7C190.3,30.9,220.2,24.9,250.3,25 M250.3,0C112,0,0,112.1,0,250.3s112.1,250.3,250.3,250.3
		s250.3-112.1,250.3-250.3S388.5,0,250.3,0z"/>
</g>
</svg>
